<svg width="1066" height="315" viewBox="0 0 1066 315" fill="none" xmlns="http://www.w3.org/2000/svg">
<g opacity="0.9" filter="url(#filter0_d_19_76)">
<path d="M295.879 172.5C295.879 156.707 299.406 142.6 306.459 130.18C313.666 117.607 323.402 107.87 335.669 100.97C348.089 93.9167 361.966 90.39 377.299 90.39C395.239 90.39 410.956 94.99 424.449 104.19C437.942 113.39 447.372 126.117 452.739 142.37H415.709C412.029 134.703 406.816 128.953 400.069 125.12C393.476 121.287 385.809 119.37 377.069 119.37C367.716 119.37 359.359 121.593 351.999 126.04C344.792 130.333 339.119 136.467 334.979 144.44C330.992 152.413 328.999 161.767 328.999 172.5C328.999 183.08 330.992 192.433 334.979 200.56C339.119 208.533 344.792 214.743 351.999 219.19C359.359 223.483 367.716 225.63 377.069 225.63C385.809 225.63 393.476 223.713 400.069 219.88C406.816 215.893 412.029 210.067 415.709 202.4H452.739C447.372 218.807 437.942 231.61 424.449 240.81C411.109 249.857 395.392 254.38 377.299 254.38C361.966 254.38 348.089 250.93 335.669 244.03C323.402 236.977 313.666 227.24 306.459 214.82C299.406 202.4 295.879 188.293 295.879 172.5ZM512.652 150.04C516.612 143.587 521.745 138.527 528.052 134.86C534.505 131.193 541.839 129.36 550.052 129.36V161.7H541.912C532.232 161.7 524.899 163.973 519.912 168.52C515.072 173.067 512.652 180.987 512.652 192.28V253H481.852V131.12H512.652V150.04ZM686.297 189.42C686.297 193.82 686.004 197.78 685.417 201.3H596.317C597.051 210.1 600.131 216.993 605.557 221.98C610.984 226.967 617.657 229.46 625.577 229.46C637.017 229.46 645.157 224.547 649.997 214.72H683.217C679.697 226.453 672.951 236.133 662.977 243.76C653.004 251.24 640.757 254.98 626.237 254.98C614.504 254.98 603.944 252.413 594.557 247.28C585.317 242 578.057 234.593 572.777 225.06C567.644 215.527 565.077 204.527 565.077 192.06C565.077 179.447 567.644 168.373 572.777 158.84C577.911 149.307 585.097 141.973 594.337 136.84C603.577 131.707 614.211 129.14 626.237 129.14C637.824 129.14 648.164 131.633 657.257 136.62C666.497 141.607 673.611 148.72 678.597 157.96C683.731 167.053 686.297 177.54 686.297 189.42ZM654.397 180.62C654.251 172.7 651.391 166.393 645.817 161.7C640.244 156.86 633.424 154.44 625.357 154.44C617.731 154.44 611.277 156.787 605.997 161.48C600.864 166.027 597.711 172.407 596.537 180.62H654.397ZM741.778 90.2V253H710.978V90.2H741.778ZM828.529 254.98C816.796 254.98 806.236 252.413 796.849 247.28C787.462 242 780.056 234.593 774.629 225.06C769.349 215.527 766.709 204.527 766.709 192.06C766.709 179.593 769.422 168.593 774.849 159.06C780.422 149.527 787.976 142.193 797.509 137.06C807.042 131.78 817.676 129.14 829.409 129.14C841.142 129.14 851.776 131.78 861.309 137.06C870.842 142.193 878.322 149.527 883.749 159.06C889.322 168.593 892.109 179.593 892.109 192.06C892.109 204.527 889.249 215.527 883.529 225.06C877.956 234.593 870.329 242 860.649 247.28C851.116 252.413 840.409 254.98 828.529 254.98ZM828.529 228.14C834.102 228.14 839.309 226.82 844.149 224.18C849.136 221.393 853.096 217.287 856.029 211.86C858.962 206.433 860.429 199.833 860.429 192.06C860.429 180.473 857.349 171.6 851.189 165.44C845.176 159.133 837.769 155.98 828.969 155.98C820.169 155.98 812.762 159.133 806.749 165.44C800.882 171.6 797.949 180.473 797.949 192.06C797.949 203.647 800.809 212.593 806.529 218.9C812.396 225.06 819.729 228.14 828.529 228.14ZM984.442 129.36C998.962 129.36 1010.7 133.98 1019.64 143.22C1028.59 152.313 1033.06 165.073 1033.06 181.5V253H1002.26V185.68C1002.26 176 999.842 168.593 995.002 163.46C990.162 158.18 983.562 155.54 975.202 155.54C966.695 155.54 959.949 158.18 954.962 163.46C950.122 168.593 947.702 176 947.702 185.68V253H916.902V131.12H947.702V146.3C951.809 141.02 957.015 136.913 963.322 133.98C969.775 130.9 976.815 129.36 984.442 129.36Z" fill="#7F7D7E" fill-opacity="0.68" shape-rendering="crispEdges"/>
</g>
<g filter="url(#filter1_d_19_76)">
<path d="M110.965 8.22431L70.2882 33.9642L41.1616 53.6477L15.048 73.3312L8.51965 79.3876L5.50655 83.93L4.50218 88.977V103.613L4 146.513V178.814L4.50218 206.573L5.00437 220.705L6.00873 224.238L7.51528 227.266L9.02183 231.304L12.0349 234.332L41.1616 258.558L86.8603 289.849L111.467 306L114.983 304.486L117.493 303.476L117.493 234.5L116.489 233.323L114.983 231.808L112.974 229.79L70.2882 198.498L68.7817 195.974L67.7773 191.937L67.7773 115.5L86 103L97.5 94L116.991 78.8829L117.996 76.3594L119 13.2714L116.991 10.7478C116.991 10.7478 114.983 8.72901 113.476 8.22431C111.969 7.71961 110.965 8.22431 110.965 8.22431Z" fill="#E95711"/>
</g>
<path d="M231.5 176H190.5L187.5 178L182 183.5L178.5 187.5V195.5L178 197.5L176.5 199L132 233L130 236V302L135.5 305.5L173.5 283.5L210 258L233 242.5L239.5 235L241.5 230V227V184L240 182L237.5 179L235.5 177L231.5 176Z" fill="#E95711"/>
<path d="M235.293 140.059L193.19 140.079L190.108 138.064L184.458 132.52L180.862 128.487L180.858 120.419L180.343 118.402L178.802 116.89L133.089 82.6217L130.5 79.5L130.5 13L132 10.5L134 8.50001L136.5 8.50002L139.215 9.50036L175.681 31.6707L213.175 57.3704L236.801 72.9914L243.48 80.5522L245.536 85.5938L245.537 88.6194L245.558 131.986L244.019 134.004L241.453 137.031L239.4 139.049L235.293 140.059Z" fill="#E95711"/>
<path d="M134.5 86.5L133.5 82.5L180.5 118L181.5 120V129L190.5 138L183 135L180.25 132.5L177.5 130V127V120.5L170.5 115.5L161.5 108.5L152 101L139 91L134.5 86.5Z" fill="#AA3700"/>
<path d="M135 226.5L132.5 233L175.5 200L178.5 197.5V195.5L180 186.5L176.5 189L175.5 194.5L171.5 199L153.5 212L135 226.5Z" fill="#AA3700"/>
<g filter="url(#filter2_d_19_76)">
<path d="M111.5 85.5L113 82L102.5 90L91 98.5L67.5 115V116.701V192L68.5 196L70 198.5L89.5 213.5L105.5 225L113 230L109 224.5L75.5 198.5L72 194.5L71.2727 189.5V118.5L79.5 112.5L88.5 106L95.5 100.5L101.5 96L107 91.5L110 88.5L111.5 85.5Z" fill="#AA3700"/>
</g>
<defs>
<filter id="filter0_d_19_76" x="291.879" y="90.2" width="745.183" height="172.78" filterUnits="userSpaceOnUse" color-interpolation-filters="sRGB">
<feFlood flood-opacity="0" result="BackgroundImageFix"/>
<feColorMatrix in="SourceAlpha" type="matrix" values="0 0 0 0 0 0 0 0 0 0 0 0 0 0 0 0 0 0 127 0" result="hardAlpha"/>
<feOffset dy="4"/>
<feGaussianBlur stdDeviation="2"/>
<feComposite in2="hardAlpha" operator="out"/>
<feColorMatrix type="matrix" values="0 0 0 0 0 0 0 0 0 0 0 0 0 0 0 0 0 0 0.25 0"/>
<feBlend mode="normal" in2="BackgroundImageFix" result="effect1_dropShadow_19_76"/>
<feBlend mode="normal" in="SourceGraphic" in2="effect1_dropShadow_19_76" result="shape"/>
</filter>
<filter id="filter1_d_19_76" x="0" y="8" width="123" height="306" filterUnits="userSpaceOnUse" color-interpolation-filters="sRGB">
<feFlood flood-opacity="0" result="BackgroundImageFix"/>
<feColorMatrix in="SourceAlpha" type="matrix" values="0 0 0 0 0 0 0 0 0 0 0 0 0 0 0 0 0 0 127 0" result="hardAlpha"/>
<feOffset dy="4"/>
<feGaussianBlur stdDeviation="2"/>
<feComposite in2="hardAlpha" operator="out"/>
<feColorMatrix type="matrix" values="0 0 0 0 0 0 0 0 0 0 0 0 0 0 0 0 0 0 0.25 0"/>
<feBlend mode="normal" in2="BackgroundImageFix" result="effect1_dropShadow_19_76"/>
<feBlend mode="normal" in="SourceGraphic" in2="effect1_dropShadow_19_76" result="shape"/>
</filter>
<filter id="filter2_d_19_76" x="63.5" y="82" width="53.5" height="156" filterUnits="userSpaceOnUse" color-interpolation-filters="sRGB">
<feFlood flood-opacity="0" result="BackgroundImageFix"/>
<feColorMatrix in="SourceAlpha" type="matrix" values="0 0 0 0 0 0 0 0 0 0 0 0 0 0 0 0 0 0 127 0" result="hardAlpha"/>
<feOffset dy="4"/>
<feGaussianBlur stdDeviation="2"/>
<feComposite in2="hardAlpha" operator="out"/>
<feColorMatrix type="matrix" values="0 0 0 0 0 0 0 0 0 0 0 0 0 0 0 0 0 0 0.25 0"/>
<feBlend mode="normal" in2="BackgroundImageFix" result="effect1_dropShadow_19_76"/>
<feBlend mode="normal" in="SourceGraphic" in2="effect1_dropShadow_19_76" result="shape"/>
</filter>
</defs>
</svg>
